<svg width="34" height="34" viewBox="0 0 34 34" fill="none" xmlns="http://www.w3.org/2000/svg">
<path d="M17 11.9C15.6474 11.9 14.3502 12.4373 13.3938 13.3938C12.4373 14.3502 11.9 15.6474 11.9 17C11.9 18.3526 12.4373 19.6498 13.3938 20.6062C14.3502 21.5627 15.6474 22.1 17 22.1C18.3526 22.1 19.6498 21.5627 20.6062 20.6062C21.5627 19.6498 22.1 18.3526 22.1 17C22.1 15.6474 21.5627 14.3502 20.6062 13.3938C19.6498 12.4373 18.3526 11.9 17 11.9ZM17 8.5C19.2543 8.5 21.4163 9.39553 23.0104 10.9896C24.6045 12.5837 25.5 14.7457 25.5 17C25.5 19.2543 24.6045 21.4163 23.0104 23.0104C21.4163 24.6045 19.2543 25.5 17 25.5C14.7457 25.5 12.5837 24.6045 10.9896 23.0104C9.39553 21.4163 8.5 19.2543 8.5 17C8.5 14.7457 9.39553 12.5837 10.9896 10.9896C12.5837 9.39553 14.7457 8.5 17 8.5ZM28.05 8.075C28.05 8.63859 27.8261 9.17909 27.4276 9.5776C27.0291 9.97612 26.4886 10.2 25.925 10.2C25.3614 10.2 24.8209 9.97612 24.4224 9.5776C24.0239 9.17909 23.8 8.63859 23.8 8.075C23.8 7.51142 24.0239 6.97091 24.4224 6.5724C24.8209 6.17388 25.3614 5.95 25.925 5.95C26.4886 5.95 27.0291 6.17388 27.4276 6.5724C27.8261 6.97091 28.05 7.51142 28.05 8.075ZM17 3.4C12.7942 3.4 12.1074 3.4119 10.1507 3.4986C8.8179 3.5615 7.9237 3.74 7.0941 4.063C6.3563 4.3486 5.8242 4.6903 5.2581 5.2581C4.72601 5.77218 4.3169 6.39979 4.0613 7.0941C3.7383 7.9271 3.5598 8.8196 3.4986 10.1507C3.4102 12.0275 3.4 12.6837 3.4 17C3.4 21.2058 3.4119 21.8926 3.4986 23.8493C3.5615 25.1804 3.74 26.0763 4.0613 26.9042C4.3503 27.6437 4.6903 28.1758 5.2547 28.7402C5.8276 29.3114 6.3597 29.6531 7.0907 29.9353C7.9305 30.26 8.8247 30.4402 10.1507 30.5014C12.0275 30.5898 12.6837 30.6 17 30.6C21.2058 30.6 21.8926 30.5881 23.8493 30.5014C25.1787 30.4385 26.0746 30.26 26.9042 29.9387C27.6403 29.6514 28.1758 29.3097 28.7402 28.7453C29.3131 28.1724 29.6548 27.6403 29.937 26.9093C30.26 26.0712 30.4402 25.1753 30.5014 23.8493C30.5898 21.9725 30.6 21.3163 30.6 17C30.6 12.7942 30.5881 12.1074 30.5014 10.1507C30.4385 8.8213 30.26 7.9237 29.937 7.0941C29.6808 6.4005 29.2724 5.77313 28.7419 5.2581C28.228 4.72574 27.6004 4.31658 26.9059 4.0613C26.0729 3.7383 25.1787 3.5598 23.8493 3.4986C21.9725 3.4102 21.3163 3.4 17 3.4ZM17 0C21.6189 0 22.1952 0.0169999 24.0074 0.102C25.8179 0.187 27.0504 0.4709 28.135 0.8925C29.257 1.3243 30.2022 1.9091 31.1474 2.8526C32.0118 3.70242 32.6807 4.7304 33.1075 5.865C33.5274 6.9479 33.813 8.1821 33.898 9.9926C33.9779 11.8048 34 12.3811 34 17C34 21.6189 33.983 22.1952 33.898 24.0074C33.813 25.8179 33.5274 27.0504 33.1075 28.135C32.682 29.2702 32.0129 30.2985 31.1474 31.1474C30.2973 32.0115 29.2694 32.6804 28.135 33.1075C27.0521 33.5274 25.8179 33.813 24.0074 33.898C22.1952 33.9779 21.6189 34 17 34C12.3811 34 11.8048 33.983 9.9926 33.898C8.1821 33.813 6.9496 33.5274 5.865 33.1075C4.72995 32.6816 3.7018 32.0126 2.8526 31.1474C1.98799 30.2977 1.31908 29.2697 0.8925 28.135C0.4709 27.0521 0.187 25.8179 0.102 24.0074C0.0220999 22.1952 0 21.6189 0 17C0 12.3811 0.0169999 11.8048 0.102 9.9926C0.187 8.1804 0.4709 6.9496 0.8925 5.865C1.3179 4.7297 1.98697 3.70145 2.8526 2.8526C3.70204 1.98769 4.73013 1.31874 5.865 0.8925C6.9496 0.4709 8.1804 0.187 9.9926 0.102C11.8048 0.0220999 12.3811 0 17 0Z" fill="#554633"/>
</svg>
