<svg width="38" height="34" viewBox="0 0 38 34" fill="none" xmlns="http://www.w3.org/2000/svg">
<path d="M37.9981 4.03617C36.5749 4.72894 35.0657 5.18392 33.5203 5.38604C35.1492 4.31401 36.3683 2.62684 36.9505 0.638931C35.4218 1.64005 33.7459 2.34165 31.9991 2.72118C30.8258 1.33967 29.2706 0.423451 27.5753 0.114954C25.8799 -0.193543 24.1395 0.122967 22.6245 1.01528C21.1095 1.90759 19.9049 3.32571 19.1978 5.04917C18.4908 6.77263 18.321 8.70487 18.7148 10.5455C15.6148 10.3745 12.5822 9.48801 9.81372 7.94354C7.04529 6.39907 4.60297 4.23116 2.64531 1.58056C1.95237 2.89032 1.58822 4.37923 1.59017 5.89481C1.59017 8.86944 2.96595 11.4974 5.05759 13.036C3.81978 12.9931 2.6092 12.6252 1.52679 11.9631V12.0697C1.52716 14.0508 2.15012 15.9709 3.29004 17.5042C4.42996 19.0376 6.01669 20.0899 7.7812 20.4828C6.63213 20.8255 5.42728 20.876 4.25785 20.6305C4.75534 22.3358 5.72499 23.8271 7.03103 24.8958C8.33706 25.9644 9.91409 26.5568 11.5413 26.5901C9.92407 27.9878 8.07235 29.021 6.09201 29.6307C4.11167 30.2404 2.04154 30.4145 0 30.1432C3.5638 32.6654 7.71241 34.0043 11.9496 34C26.2909 34 34.1336 20.926 34.1336 9.58746C34.1336 9.21819 34.1243 8.84482 34.1094 8.47966C35.6359 7.26553 36.9534 5.7615 38 4.03822L37.9981 4.03617Z" fill="#554633"/>
</svg>
